<svg width="24" height="25" viewBox="0 0 24 25" fill="none" xmlns="http://www.w3.org/2000/svg">
<path d="M12 2.40967C6.20156 2.40967 1.5 7.11123 1.5 12.9097C1.5 18.7081 6.20156 23.4097 12 23.4097C17.7984 23.4097 22.5 18.7081 22.5 12.9097C22.5 7.11123 17.7984 2.40967 12 2.40967ZM17.0461 10.3245C17.0531 10.4347 17.0531 10.5495 17.0531 10.662C17.0531 14.1026 14.4328 18.0659 9.64453 18.0659C8.16797 18.0659 6.79922 17.637 5.64609 16.8987C5.85703 16.9222 6.05859 16.9315 6.27422 16.9315C7.49297 16.9315 8.61328 16.519 9.50625 15.8206C8.3625 15.7972 7.40156 15.0472 7.07344 14.0159C7.47422 14.0745 7.83516 14.0745 8.24766 13.969C7.65873 13.8494 7.12939 13.5295 6.74957 13.0638C6.36974 12.5981 6.16286 12.0153 6.16406 11.4144V11.3815C6.50859 11.5761 6.91406 11.6956 7.33828 11.712C6.98166 11.4743 6.6892 11.1523 6.48682 10.7746C6.28445 10.3968 6.17841 9.97495 6.17813 9.54639C6.17813 9.06123 6.30469 8.61826 6.53203 8.23389C7.18571 9.03858 8.0014 9.69672 8.92609 10.1655C9.85078 10.6343 10.8638 10.9033 11.8992 10.955C11.5312 9.18545 12.8531 7.75342 14.4422 7.75342C15.1922 7.75342 15.8672 8.06748 16.343 8.57373C16.9312 8.46357 17.4937 8.24326 17.9953 7.94795C17.8008 8.55029 17.393 9.05889 16.8516 9.37998C17.3766 9.32373 17.8828 9.17842 18.3516 8.97451C17.9977 9.49482 17.5547 9.95654 17.0461 10.3245Z" fill="#88C701"/>
</svg>
