<svg width="24" height="25" viewBox="0 0 24 25" fill="none" xmlns="http://www.w3.org/2000/svg">
<path d="M17 22.9095H5C4.20435 22.9095 3.44129 22.5934 2.87868 22.0308C2.31607 21.4682 2 20.7052 2 19.9095V9.90951C2 9.11386 2.31607 8.3508 2.87868 7.78819C3.44129 7.22558 4.20435 6.90951 5 6.90951H6C6.01682 6.06215 6.30235 5.24203 6.81541 4.56744C7.32848 3.89285 8.04255 3.39866 8.85464 3.15614C9.66673 2.91363 10.5349 2.93533 11.3338 3.21811C12.1328 3.50089 12.8213 4.03013 13.3 4.72951C13.7484 5.36866 13.9925 6.12877 14 6.90951H17C17.2652 6.90951 17.5196 7.01487 17.7071 7.2024C17.8946 7.38994 18 7.64429 18 7.90951V10.9095C18.8474 10.9263 19.6675 11.2119 20.3421 11.7249C21.0167 12.238 21.5109 12.9521 21.7534 13.7641C21.9959 14.5762 21.9742 15.4444 21.6914 16.2433C21.4086 17.0423 20.8794 17.7308 20.18 18.2095C19.5409 18.658 18.7807 18.902 18 18.9095V21.9095C18 22.1747 17.8946 22.4291 17.7071 22.6166C17.5196 22.8042 17.2652 22.9095 17 22.9095ZM5 8.90951C4.73478 8.90951 4.48043 9.01487 4.29289 9.2024C4.10536 9.38994 4 9.64429 4 9.90951V19.9095C4 20.1747 4.10536 20.4291 4.29289 20.6166C4.48043 20.8042 4.73478 20.9095 5 20.9095H16V17.7295C15.9991 17.5692 16.0368 17.411 16.1099 17.2683C16.183 17.1256 16.2894 17.0025 16.42 16.9095C16.5502 16.8166 16.7008 16.7564 16.8592 16.7338C17.0175 16.7111 17.179 16.7268 17.33 16.7795C17.615 16.8958 17.9254 16.9357 18.2305 16.8954C18.5357 16.855 18.825 16.7358 19.07 16.5495C19.3139 16.4008 19.523 16.2016 19.6834 15.9653C19.8439 15.729 19.9518 15.461 20 15.1795C20.0386 14.8956 20.0157 14.6067 19.9329 14.3323C19.85 14.058 19.7092 13.8047 19.52 13.5895C19.2641 13.2786 18.9155 13.0576 18.5252 12.9587C18.1349 12.8597 17.7231 12.8881 17.35 13.0395C17.199 13.0922 17.0375 13.1079 16.8792 13.0853C16.7208 13.0627 16.5702 13.0024 16.44 12.9095C16.3094 12.8165 16.203 12.6935 16.1299 12.5508C16.0568 12.408 16.0191 12.2499 16.02 12.0895V8.90951H12.82C12.6557 8.91883 12.4915 8.88742 12.3422 8.81809C12.1929 8.74876 12.0631 8.64365 11.9641 8.51207C11.8652 8.3805 11.8003 8.22654 11.7752 8.06386C11.75 7.90118 11.7654 7.73481 11.82 7.57951C11.9363 7.29452 11.9762 6.98414 11.9359 6.679C11.8955 6.37386 11.7763 6.08451 11.59 5.83951C11.4424 5.58868 11.2402 5.37428 10.9984 5.2122C10.7566 5.05013 10.4815 4.94453 10.1934 4.90324C9.90527 4.86194 9.61155 4.886 9.33399 4.97364C9.05644 5.06128 8.80216 5.21025 8.59 5.40951C8.39298 5.60493 8.23877 5.8392 8.1372 6.09744C8.03562 6.35568 7.9889 6.63224 8 6.90951C8.00232 7.13888 8.04637 7.36592 8.13 7.57951C8.18287 7.73073 8.19863 7.89244 8.17597 8.05102C8.1533 8.2096 8.09287 8.36041 7.99976 8.49077C7.90665 8.62112 7.78358 8.7272 7.64093 8.80007C7.49827 8.87294 7.34019 8.91048 7.18 8.90951H5Z" fill="#88C701"/>
</svg>
