<svg width="24" height="25" viewBox="0 0 24 25" fill="none" xmlns="http://www.w3.org/2000/svg">
<path d="M6 9.90955C6 11.5008 6.63214 13.027 7.75736 14.1522C8.88258 15.2774 10.4087 15.9095 12 15.9095C13.5913 15.9095 15.1174 15.2774 16.2426 14.1522C17.3679 13.027 18 11.5008 18 9.90955C18 8.31825 17.3679 6.79212 16.2426 5.66691C15.1174 4.54169 13.5913 3.90955 12 3.90955C10.4087 3.90955 8.88258 4.54169 7.75736 5.66691C6.63214 6.79212 6 8.31825 6 9.90955Z" stroke="white" stroke-width="2" stroke-linecap="round" stroke-linejoin="round"/>
<path d="M12.0003 15.9095L15.4003 21.7995L16.9983 18.5665L20.5963 18.7985L17.1963 12.9095M6.80234 12.9095L3.40234 18.7995L7.00034 18.5665L8.59834 21.7985L11.9983 15.9095" stroke="white" stroke-width="2" stroke-linecap="round" stroke-linejoin="round"/>
</svg>
