<svg width="26" height="19" viewBox="0 0 26 19" fill="none" xmlns="http://www.w3.org/2000/svg">
<path d="M7.03134 0.316667C7.19768 0.191911 7.38697 0.10114 7.58839 0.0495369C7.78981 -0.00206649 7.99942 -0.0134919 8.20526 0.0159133C8.4111 0.0453185 8.60913 0.114978 8.78804 0.220916C8.96696 0.326853 9.12325 0.466993 9.24801 0.633334C9.37277 0.799675 9.46354 0.98896 9.51514 1.19038C9.56674 1.3918 9.57817 1.60141 9.54876 1.80725C9.51936 2.01309 9.4497 2.21112 9.34376 2.39003C9.23783 2.56895 9.09769 2.72524 8.93134 2.85C6.45501 4.70725 5.03634 6.51383 4.22409 8.09083C5.33935 7.80375 6.51634 7.87124 7.59146 8.28393C8.66659 8.69662 9.58644 9.434 10.2232 10.3936C10.8599 11.3532 11.1818 12.4873 11.1443 13.6383C11.1067 14.7893 10.7115 15.9 10.0136 16.816C9.3157 17.732 8.34974 18.4079 7.25 18.7496C6.15026 19.0913 4.97137 19.082 3.8772 18.7228C2.78304 18.3636 1.82794 17.6725 1.14468 16.7455C0.461415 15.8185 0.0839245 14.7016 0.0646769 13.5502C-0.138208 11.6057 0.137938 9.64117 0.86901 7.828C1.81426 5.4435 3.66201 2.84367 7.03134 0.316667ZM21.2813 0.316667C21.4477 0.191911 21.637 0.10114 21.8384 0.0495369C22.0398 -0.00206649 22.2494 -0.0134919 22.4553 0.0159133C22.6611 0.0453185 22.8591 0.114978 23.038 0.220916C23.217 0.326853 23.3733 0.466993 23.498 0.633334C23.6228 0.799675 23.7135 0.98896 23.7651 1.19038C23.8167 1.3918 23.8282 1.60141 23.7988 1.80725C23.7694 2.01309 23.6997 2.21112 23.5938 2.39003C23.4878 2.56895 23.3477 2.72524 23.1813 2.85C20.705 4.70725 19.2863 6.51383 18.4741 8.09083C19.5893 7.80375 20.7663 7.87124 21.8415 8.28393C22.9166 8.69662 23.8364 9.434 24.4732 10.3936C25.1099 11.3532 25.4318 12.4873 25.3943 13.6383C25.3567 14.7893 24.9615 15.9 24.2636 16.816C23.5657 17.732 22.5997 18.4079 21.5 18.7496C20.4003 19.0913 19.2214 19.082 18.1272 18.7228C17.033 18.3636 16.0779 17.6725 15.3947 16.7455C14.7114 15.8185 14.3339 14.7016 14.3147 13.5502C14.1118 11.6057 14.3879 9.64117 15.119 7.828C16.0658 5.4435 17.912 2.84367 21.2813 0.316667Z" fill="#88C701"/>
</svg>
