<svg width="120" height="20" viewBox="0 0 120 20" fill="none" xmlns="http://www.w3.org/2000/svg">
<path d="M9.04894 2.92632C9.3483 2.00501 10.6517 2.00501 10.9511 2.92632L12.0206 6.21811C12.1545 6.63014 12.5385 6.9091 12.9717 6.9091H16.4329C17.4016 6.9091 17.8044 8.14871 17.0207 8.71811L14.2205 10.7526C13.87 11.0072 13.7234 11.4586 13.8572 11.8706L14.9268 15.1624C15.2261 16.0837 14.1717 16.8498 13.388 16.2804L10.5878 14.246C10.2373 13.9913 9.7627 13.9913 9.41221 14.246L6.61204 16.2804C5.82833 16.8498 4.77385 16.0837 5.0732 15.1624L6.14277 11.8706C6.27665 11.4586 6.12999 11.0072 5.7795 10.7526L2.97933 8.71811C2.19562 8.14871 2.59839 6.9091 3.56712 6.9091H7.02832C7.46154 6.9091 7.8455 6.63014 7.97937 6.21811L9.04894 2.92632Z" fill="#FFB800"/>
<path d="M34.0489 2.92632C34.3483 2.00501 35.6517 2.00501 35.9511 2.92632L37.0206 6.21811C37.1545 6.63014 37.5385 6.9091 37.9717 6.9091H41.4329C42.4016 6.9091 42.8044 8.14871 42.0207 8.71811L39.2205 10.7526C38.87 11.0072 38.7234 11.4586 38.8572 11.8706L39.9268 15.1624C40.2261 16.0837 39.1717 16.8498 38.388 16.2804L35.5878 14.246C35.2373 13.9913 34.7627 13.9913 34.4122 14.246L31.612 16.2804C30.8283 16.8498 29.7739 16.0837 30.0732 15.1624L31.1428 11.8706C31.2766 11.4586 31.13 11.0072 30.7795 10.7526L27.9793 8.71811C27.1956 8.14871 27.5984 6.9091 28.5671 6.9091H32.0283C32.4615 6.9091 32.8455 6.63014 32.9794 6.21811L34.0489 2.92632Z" fill="#FFB800"/>
<path d="M59.0489 2.92632C59.3483 2.00501 60.6517 2.00501 60.9511 2.92632L62.0206 6.21811C62.1545 6.63014 62.5385 6.9091 62.9717 6.9091H66.4329C67.4016 6.9091 67.8044 8.14871 67.0207 8.71811L64.2205 10.7526C63.87 11.0072 63.7234 11.4586 63.8572 11.8706L64.9268 15.1624C65.2261 16.0837 64.1717 16.8498 63.388 16.2804L60.5878 14.246C60.2373 13.9913 59.7627 13.9913 59.4122 14.246L56.612 16.2804C55.8283 16.8498 54.7739 16.0837 55.0732 15.1624L56.1428 11.8706C56.2766 11.4586 56.13 11.0072 55.7795 10.7526L52.9793 8.71811C52.1956 8.14871 52.5984 6.9091 53.5671 6.9091H57.0283C57.4615 6.9091 57.8455 6.63014 57.9794 6.21811L59.0489 2.92632Z" fill="#FFB800"/>
<path d="M84.0489 2.92632C84.3483 2.00501 85.6517 2.00501 85.9511 2.92632L87.0206 6.21811C87.1545 6.63014 87.5385 6.9091 87.9717 6.9091H91.4329C92.4016 6.9091 92.8044 8.14871 92.0207 8.71811L89.2205 10.7526C88.87 11.0072 88.7234 11.4586 88.8572 11.8706L89.9268 15.1624C90.2261 16.0837 89.1717 16.8498 88.388 16.2804L85.5878 14.246C85.2373 13.9913 84.7627 13.9913 84.4122 14.246L81.612 16.2804C80.8283 16.8498 79.7739 16.0837 80.0732 15.1624L81.1428 11.8706C81.2766 11.4586 81.13 11.0072 80.7795 10.7526L77.9793 8.71811C77.1956 8.14871 77.5984 6.9091 78.5671 6.9091H82.0283C82.4615 6.9091 82.8455 6.63014 82.9794 6.21811L84.0489 2.92632Z" fill="#FFB800"/>
<path d="M109.049 2.92632C109.348 2.00501 110.652 2.00501 110.951 2.92632L112.021 6.21811C112.155 6.63014 112.538 6.9091 112.972 6.9091H116.433C117.402 6.9091 117.804 8.14871 117.021 8.71811L114.22 10.7526C113.87 11.0072 113.723 11.4586 113.857 11.8706L114.927 15.1624C115.226 16.0837 114.172 16.8498 113.388 16.2804L110.588 14.246C110.237 13.9913 109.763 13.9913 109.412 14.246L106.612 16.2804C105.828 16.8498 104.774 16.0837 105.073 15.1624L106.143 11.8706C106.277 11.4586 106.13 11.0072 105.78 10.7526L102.979 8.71811C102.196 8.14871 102.598 6.9091 103.567 6.9091H107.028C107.462 6.9091 107.845 6.63014 107.979 6.21811L109.049 2.92632Z" fill="#FFB800"/>
</svg>
