<svg width="24" height="25" viewBox="0 0 24 25" fill="none" xmlns="http://www.w3.org/2000/svg">
<path d="M11.25 2.40955C10.0163 2.40955 9 3.4258 9 4.65955V5.8078L8.90625 5.5033C8.5485 4.3228 7.27425 3.64555 6.09375 4.0033C4.91325 4.36105 4.236 5.6353 4.59375 6.8158L6.53925 13.1443C6.39825 13.1998 6.24675 13.2643 6.09375 13.3543C5.46675 13.7293 4.758 14.4883 4.5465 15.6988C4.389 16.595 4.5615 17.3833 4.6875 17.8078V17.8318L5.27325 19.7068C5.60417 20.779 6.26981 21.717 7.17262 22.3833C8.07542 23.0496 9.16792 23.4093 10.29 23.4095H14.25C17.1413 23.4095 19.5 21.0508 19.5 18.1595V10.5658C19.494 10.5425 19.485 10.5185 19.4768 10.4953C19.4093 9.66955 18.9083 8.89855 18.0938 8.5738C17.5283 8.34805 16.9335 8.3803 16.4063 8.59705C16.1608 8.12043 15.7538 7.74665 15.258 7.54255C14.977 7.43144 14.6764 7.37828 14.3743 7.38628C14.0721 7.39427 13.7748 7.46324 13.5 7.58905V4.65955C13.5 3.4258 12.4838 2.40955 11.25 2.40955ZM11.25 3.90955C11.6745 3.90955 12 4.23505 12 4.65955V9.60505L11.2268 11.5738C11.118 11.8499 11.0622 12.144 11.0625 12.4408L7.992 12.839L6.0465 6.3703C6.01567 6.27644 6.00401 6.17734 6.01223 6.07889C6.02044 5.98043 6.04836 5.88464 6.09432 5.79719C6.14029 5.70974 6.20336 5.63242 6.27979 5.56982C6.35622 5.50722 6.44446 5.46062 6.53925 5.4328C6.9435 5.3098 7.35375 5.54455 7.47675 5.9488L9.02325 11.081L9.867 10.8238H10.5V4.65955C10.5 4.23505 10.8255 3.90955 11.25 3.90955ZM14.391 8.8783C14.487 8.8753 14.5988 8.8873 14.6955 8.92555C14.7884 8.96172 14.8731 9.01603 14.9447 9.08532C15.0164 9.15461 15.0735 9.23749 15.1127 9.3291C15.152 9.42071 15.1726 9.51923 15.1733 9.61889C15.174 9.71856 15.1549 9.81736 15.117 9.90955L14.3205 11.9015V11.9248L14.0153 12.6988C14.001 12.7393 13.9658 12.7573 13.9455 12.7925C13.5574 12.4858 13.0803 12.3132 12.5858 12.3005C12.5948 12.2443 12.5858 12.1918 12.6098 12.1355L13.7348 9.34705C13.8518 9.0508 14.1008 8.8843 14.391 8.8783ZM17.226 9.90955C17.3265 9.90955 17.4315 9.91855 17.5313 9.9568C17.6687 10.0097 17.787 10.1028 17.8707 10.2241C17.9543 10.3453 17.9994 10.489 18 10.6363V10.6595C18 10.7503 17.988 10.85 17.9528 10.9408L17.109 13.0265C17.0729 13.1195 17.0186 13.2043 16.9494 13.276C16.8801 13.3477 16.7973 13.4049 16.7056 13.4442C16.614 13.4835 16.5155 13.5042 16.4158 13.505C16.3161 13.5058 16.2172 13.4867 16.125 13.4488C15.7328 13.2905 15.5685 12.8563 15.7268 12.464L16.5233 10.472C16.5353 10.442 16.5353 10.4075 16.5473 10.3783C16.6192 10.1908 16.762 10.0392 16.9448 9.95605C17.0347 9.92104 17.131 9.9052 17.2275 9.90955H17.226ZM12.375 13.7765C12.4674 13.7537 12.5634 13.7496 12.6574 13.7645C12.7514 13.7794 12.8415 13.8129 12.9223 13.8632C13.0031 13.9135 13.073 13.9794 13.128 14.0571C13.1829 14.1349 13.2216 14.2228 13.242 14.3158C13.3005 14.5588 13.2683 14.6818 13.1955 14.8078C13.122 14.9338 12.9668 15.089 12.633 15.2068L9 16.1443C8.89079 16.1734 8.78956 16.2268 8.70389 16.3005C8.61821 16.3742 8.55029 16.4663 8.50522 16.5699C8.46014 16.6735 8.43907 16.786 8.44358 16.899C8.44809 17.0119 8.47806 17.1223 8.53125 17.222L9.21075 18.464C9.25827 18.5505 9.32241 18.6266 9.3995 18.6882C9.47658 18.7497 9.56507 18.7954 9.65988 18.8226C9.75469 18.8498 9.85394 18.8579 9.95191 18.8466C10.0499 18.8353 10.1447 18.8047 10.2308 18.7565C10.317 18.709 10.393 18.6449 10.4544 18.568C10.5158 18.491 10.5614 18.4027 10.5886 18.3081C10.6157 18.2134 10.624 18.1144 10.6127 18.0165C10.6015 17.9187 10.5711 17.8241 10.5233 17.738L10.3125 17.363L13.0785 16.6355C13.101 16.6303 13.125 16.6213 13.1483 16.613C13.7288 16.4105 14.1945 16.0648 14.4848 15.5818C14.7178 15.1862 14.8165 14.7257 14.766 14.2693C14.985 14.5063 15.2663 14.7028 15.5858 14.8318C15.9921 14.9962 16.4379 15.0371 16.8673 14.9493C17.2968 14.8615 17.6908 14.649 18 14.3383V18.1595C18 20.2393 16.3298 21.9095 14.25 21.9095H10.2893C8.63925 21.9095 7.1895 20.837 6.7035 19.2613L6.141 17.3863C6.07875 17.1838 5.95575 16.475 6.0465 15.956C6.1875 15.1505 6.53925 14.84 6.867 14.6435C7.1955 14.4478 7.4295 14.4335 7.4295 14.4335H7.47675L12.3045 13.7998C12.3285 13.7945 12.3518 13.7848 12.375 13.7765Z" fill="#88C701"/>
</svg>
